<svg width="1200" height="580" viewBox="0 0 1200 580" xmlns="http://www.w3.org/2000/svg" role="img" aria-label="Stashfin generated library cover system">
  <defs>
    <linearGradient id="fade" x1="0" y1="0" x2="1" y2="0">
      <stop offset="0" stop-color="#050506" stop-opacity=".92"/>
      <stop offset=".55" stop-color="#050506" stop-opacity=".38"/>
      <stop offset="1" stop-color="#050506" stop-opacity=".08"/>
    </linearGradient>
    <linearGradient id="edge" x1="0" y1="0" x2="1" y2="1">
      <stop offset="0" stop-color="#ff8400"/>
      <stop offset=".56" stop-color="#d94c36"/>
      <stop offset="1" stop-color="#3e8c8a"/>
    </linearGradient>
    <filter id="shadow" x="-20%" y="-30%" width="150%" height="170%">
      <feDropShadow dx="0" dy="18" stdDeviation="18" flood-color="#000" flood-opacity=".5"/>
    </filter>
  </defs>

  <rect width="1200" height="580" fill="#090a0b"/>
  <text x="72" y="72" fill="#8f9498" font-family="Arial, Helvetica, sans-serif" font-size="17" font-weight="700" letter-spacing="0">STASHFIN / LIBRARY COVERS</text>
  <text x="72" y="112" fill="#f4f4f1" font-family="Arial, Helvetica, sans-serif" font-size="30" font-weight="700" letter-spacing="0">Generated from the artwork already in Stash.</text>

  <g filter="url(#shadow)">
    <g transform="translate(72 158)">
      <rect width="690" height="388" rx="6" fill="#17191b"/>
      <rect width="172" height="192" fill="#70423b"/>
      <rect x="176" width="168" height="192" fill="#2f5959"/>
      <rect x="348" width="170" height="192" fill="#ba6b30"/>
      <rect x="522" width="168" height="192" fill="#344c63"/>
      <rect y="196" width="226" height="192" fill="#a2493e"/>
      <rect x="230" y="196" width="226" height="192" fill="#29454e"/>
      <rect x="460" y="196" width="230" height="192" fill="#5c465d"/>
      <circle cx="110" cy="90" r="76" fill="#e0b08b" opacity=".28"/>
      <circle cx="424" cy="110" r="92" fill="#ffd397" opacity=".2"/>
      <circle cx="588" cy="300" r="86" fill="#8dd2c3" opacity=".2"/>
      <rect width="690" height="388" rx="6" fill="url(#fade)"/>
      <rect x="38" y="80" width="9" height="166" fill="url(#edge)"/>
      <text x="76" y="158" fill="#fff" font-family="Menlo, Consolas, monospace" font-size="56" font-weight="700" letter-spacing="0">SCENES</text>
      <text x="78" y="198" fill="#c7c9c7" font-family="Arial, Helvetica, sans-serif" font-size="20" letter-spacing="0">RECENTLY ADDED</text>
    </g>

    <g transform="translate(798 158)">
      <rect width="330" height="116" rx="6" fill="#172022"/>
      <rect width="82" height="116" fill="#315b59"/>
      <rect x="86" width="78" height="116" fill="#8c463e"/>
      <rect x="168" width="78" height="116" fill="#c47531"/>
      <rect x="250" width="80" height="116" fill="#354c64"/>
      <rect width="330" height="116" rx="6" fill="url(#fade)"/>
      <rect x="22" y="24" width="6" height="68" fill="#ff8400"/>
      <text x="46" y="68" fill="#fff" font-family="Menlo, Consolas, monospace" font-size="25" font-weight="700">PERFORMERS</text>
    </g>

    <g transform="translate(798 294)">
      <rect width="330" height="116" rx="6" fill="#202126"/>
      <rect width="108" height="56" fill="#6c403b"/>
      <rect x="112" width="218" height="56" fill="#2d5155"/>
      <rect y="60" width="218" height="56" fill="#ad6331"/>
      <rect x="222" y="60" width="108" height="56" fill="#3b4f64"/>
      <rect width="330" height="116" rx="6" fill="url(#fade)"/>
      <rect x="22" y="24" width="6" height="68" fill="#ff8400"/>
      <text x="46" y="68" fill="#fff" font-family="Menlo, Consolas, monospace" font-size="25" font-weight="700">STUDIOS</text>
    </g>

    <g transform="translate(798 430)">
      <rect width="330" height="116" rx="6" fill="#211d21"/>
      <rect width="160" height="116" fill="#4d4058"/>
      <rect x="164" width="80" height="116" fill="#2e5a57"/>
      <rect x="248" width="82" height="116" fill="#a9523b"/>
      <rect width="330" height="116" rx="6" fill="url(#fade)"/>
      <rect x="22" y="24" width="6" height="68" fill="#ff8400"/>
      <text x="46" y="68" fill="#fff" font-family="Menlo, Consolas, monospace" font-size="25" font-weight="700">TAGS</text>
    </g>
  </g>

</svg>
