<svg width="1200" height="610" viewBox="0 0 1200 610" xmlns="http://www.w3.org/2000/svg" role="img" aria-label="Stashfin libraries in Infuse">
  <rect width="1200" height="610" fill="#08090a"/>
  <rect x="0" y="0" width="1200" height="84" fill="#111315"/>
  <circle cx="48" cy="42" r="20" fill="none" stroke="#ff8400" stroke-width="4"/>
  <path d="M54 31l-11 11 11 11" fill="none" stroke="#ff8400" stroke-width="4" stroke-linecap="square"/>
  <text x="600" y="53" fill="#f4f4f1" font-family="Arial, Helvetica, sans-serif" font-size="30" font-weight="700" text-anchor="middle">Stashfin</text>

  <g transform="translate(34 122)">
    <rect width="260" height="360" fill="#17191b"/>
    <rect width="128" height="177" fill="#67413b"/>
    <rect x="132" width="128" height="177" fill="#2d5354"/>
    <rect y="181" width="128" height="179" fill="#bc6a32"/>
    <rect x="132" y="181" width="128" height="179" fill="#31445d"/>
    <path d="M0 360V218c56-35 109-31 159-4 34 18 68 22 101 12v134z" fill="#050607" opacity=".58"/>
    <rect x="22" y="250" width="7" height="70" fill="#ff8400"/>
    <text x="46" y="294" fill="#ffffff" font-family="Menlo, Consolas, monospace" font-size="27" font-weight="700">SCENES</text>
    <text x="0" y="397" fill="#f4f4f1" font-family="Arial, Helvetica, sans-serif" font-size="22">Scenes</text>
  </g>

  <g transform="translate(325 122)">
    <rect width="260" height="360" fill="#17191b"/>
    <rect width="84" height="116" fill="#355c5d"/>
    <rect x="88" width="84" height="116" fill="#8b4a40"/>
    <rect x="176" width="84" height="116" fill="#d17a33"/>
    <rect y="120" width="84" height="116" fill="#6e3948"/>
    <rect x="88" y="120" width="84" height="116" fill="#29485c"/>
    <rect x="176" y="120" width="84" height="116" fill="#6a5940"/>
    <rect y="240" width="84" height="120" fill="#a54a3d"/>
    <rect x="88" y="240" width="84" height="120" fill="#37716a"/>
    <rect x="176" y="240" width="84" height="120" fill="#4d425c"/>
    <rect width="260" height="360" fill="#050607" opacity=".3"/>
    <rect x="22" y="250" width="7" height="70" fill="#ff8400"/>
    <text x="46" y="294" fill="#ffffff" font-family="Menlo, Consolas, monospace" font-size="23" font-weight="700">PERFORMERS</text>
    <text x="0" y="397" fill="#f4f4f1" font-family="Arial, Helvetica, sans-serif" font-size="22">Performers</text>
  </g>

  <g transform="translate(616 122)">
    <rect width="260" height="360" fill="#17191b"/>
    <rect width="260" height="120" fill="#27484d"/>
    <rect y="124" width="260" height="112" fill="#9c4b3a"/>
    <rect y="240" width="260" height="120" fill="#415669"/>
    <path d="M0 86h260M0 204h260M65 0v360M195 0v360" stroke="#08090a" stroke-width="4" opacity=".45"/>
    <rect width="260" height="360" fill="#050607" opacity=".34"/>
    <rect x="22" y="250" width="7" height="70" fill="#ff8400"/>
    <text x="46" y="294" fill="#ffffff" font-family="Menlo, Consolas, monospace" font-size="27" font-weight="700">STUDIOS</text>
    <text x="0" y="397" fill="#f4f4f1" font-family="Arial, Helvetica, sans-serif" font-size="22">Studios</text>
  </g>

  <g transform="translate(907 122)">
    <rect width="260" height="360" fill="#17191b"/>
    <rect width="128" height="116" fill="#9c4c3e"/>
    <rect x="132" width="128" height="116" fill="#31595a"/>
    <rect y="120" width="260" height="116" fill="#b46d32"/>
    <rect y="240" width="128" height="120" fill="#344c63"/>
    <rect x="132" y="240" width="128" height="120" fill="#59445a"/>
    <rect width="260" height="360" fill="#050607" opacity=".34"/>
    <rect x="22" y="250" width="7" height="70" fill="#ff8400"/>
    <text x="46" y="294" fill="#ffffff" font-family="Menlo, Consolas, monospace" font-size="27" font-weight="700">TAGS</text>
    <text x="0" y="397" fill="#f4f4f1" font-family="Arial, Helvetica, sans-serif" font-size="22">Tags</text>
  </g>

  <text x="34" y="568" fill="#92979b" font-family="Arial, Helvetica, sans-serif" font-size="18">Jellyfin-shaped libraries. Stash-native metadata. Direct media delivery.</text>
</svg>
